<svg width="20" height="20" viewBox="0 0 20 20" fill="none" xmlns="http://www.w3.org/2000/svg">
<path d="M6.68952 15.8615C6.68952 15.943 6.59677 16.0082 6.47984 16.0082C6.34677 16.0204 6.25403 15.9552 6.25403 15.8615C6.25403 15.78 6.34677 15.7149 6.46371 15.7149C6.58468 15.7027 6.68952 15.7678 6.68952 15.8615ZM5.43548 15.6782C5.40726 15.7597 5.4879 15.8534 5.60887 15.8778C5.71371 15.9185 5.83468 15.8778 5.85887 15.7963C5.88306 15.7149 5.80645 15.6212 5.68548 15.5845C5.58065 15.556 5.46371 15.5967 5.43548 15.6782ZM7.21774 15.609C7.10081 15.6375 7.02016 15.7149 7.03226 15.8086C7.04435 15.89 7.14919 15.943 7.27016 15.9145C7.3871 15.886 7.46774 15.8086 7.45564 15.7271C7.44355 15.6497 7.33468 15.5967 7.21774 15.609ZM9.87097 0C4.27823 0 0 4.28921 0 9.9389C0 14.4562 2.81452 18.3218 6.83468 19.6823C7.35081 19.776 7.53226 19.4542 7.53226 19.1894C7.53226 18.9369 7.52016 17.5438 7.52016 16.6884C7.52016 16.6884 4.69758 17.2994 4.10484 15.4745C4.10484 15.4745 3.64516 14.2892 2.98387 13.9837C2.98387 13.9837 2.06048 13.3442 3.04839 13.3564C3.04839 13.3564 4.05242 13.4379 4.60484 14.4073C5.4879 15.9796 6.96774 15.5275 7.54435 15.2587C7.6371 14.6069 7.89919 14.1548 8.18952 13.886C5.93548 13.6334 3.66129 13.3035 3.66129 9.38493C3.66129 8.26477 3.96774 7.70265 4.6129 6.98575C4.50806 6.72098 4.16532 5.62933 4.71774 4.21996C5.56048 3.95519 7.5 5.31976 7.5 5.31976C8.30645 5.09165 9.17339 4.97353 10.0323 4.97353C10.8911 4.97353 11.7581 5.09165 12.5645 5.31976C12.5645 5.31976 14.504 3.95112 15.3468 4.21996C15.8992 5.6334 15.5565 6.72098 15.4516 6.98575C16.0968 7.70672 16.4919 8.26884 16.4919 9.38493C16.4919 13.3157 14.1169 13.6293 11.8629 13.886C12.2339 14.2077 12.5484 14.8187 12.5484 15.776C12.5484 17.1487 12.5363 18.8473 12.5363 19.1813C12.5363 19.446 12.7218 19.7678 13.2339 19.6741C17.2661 18.3218 20 14.4562 20 9.9389C20 4.28921 15.4637 0 9.87097 0ZM3.91935 14.0489C3.86694 14.0896 3.87903 14.1833 3.94758 14.2607C4.0121 14.3259 4.10484 14.3544 4.15726 14.3014C4.20968 14.2607 4.19758 14.167 4.12903 14.0896C4.06452 14.0244 3.97177 13.9959 3.91935 14.0489ZM3.48387 13.7189C3.45565 13.7719 3.49597 13.8371 3.57661 13.8778C3.64113 13.9185 3.72177 13.9063 3.75 13.8493C3.77823 13.7963 3.7379 13.7312 3.65726 13.6904C3.57661 13.666 3.5121 13.6782 3.48387 13.7189ZM4.79032 15.169C4.72581 15.222 4.75 15.3442 4.84274 15.4216C4.93548 15.5153 5.05242 15.5275 5.10484 15.4623C5.15726 15.4094 5.13306 15.2872 5.05242 15.2098C4.96371 15.1161 4.84274 15.1039 4.79032 15.169ZM4.33065 14.5703C4.26613 14.611 4.26613 14.7169 4.33065 14.8106C4.39516 14.9043 4.50403 14.945 4.55645 14.9043C4.62097 14.8513 4.62097 14.7454 4.55645 14.6517C4.5 14.5581 4.39516 14.5173 4.33065 14.5703Z" fill="black" fill-opacity="0.69"/>
</svg>
